<svg id="Layer_6" data-name="Layer 6" xmlns="http://www.w3.org/2000/svg" viewBox="0 0 249.79 249.79"><defs><style>.cls-1{fill:#231f20;}</style></defs><title>black logo</title><path class="cls-1" d="M235.79,182.39,172,204.79l-99.1-94.43V91.88l8,7.62L175.83,190h19.95V82.57q0-6.33,2.5-9.82a12.87,12.87,0,0,1,7.5-4.81q3.54-.94,13.55-1h4V59.11H147.75V67h5.84q8.92,0,13.47,1.51a13.94,13.94,0,0,1,6.82,4.44q2.26,2.93,2.27,9.63V105l-72.5-69.08L168,13.35,154,0,0,54.05,14,67.4,77.79,45l98.36,93.73v18.5l-8-7.62L73.21,59.11H53.26V166.55q0,6.31-2.5,9.82a12.87,12.87,0,0,1-7.5,4.81q-3.55.94-13.55.94h-4V190h75.61v-7.89H95.44q-8.93,0-13.46-1.51a13.86,13.86,0,0,1-6.82-4.43q-2.26-2.93-2.27-9.63V144.07l73.24,69.79L81.81,236.44l14,13.35,154-54Z"/></svg>